<?xml version="1.0" encoding="UTF-8"?><svg id="header" xmlns="http://www.w3.org/2000/svg" width="212.7" height="252.03" viewBox="0 0 212.7 252.03"><defs><style>.cls-1{fill:#0d1000;}</style></defs>
<g>
<title>face - head</title>
<path class="cls-1" d="M211.84,252.03h0c-.47,0-.85-.4-.84-.89,.07-7.82-.22-34.06-6.9-43.48-5.11-7.21-13.46-11.51-20.15-14.46-5.12-2.26-10.46-4.27-15.63-6.21-6.82-2.57-13.88-5.22-20.51-8.48-4-1.95-7.55-3.98-10.86-6.21-2.96-2-6.22-4.53-8.01-8.15-2.01-4.05-1.87-8.75-1.75-12.91,.14-4.21,.28-15.95,.41-27.31l.1-8.54c0-.48,.38-.88,.85-.88s.85,.39,.85,.88v.12l-.1,8.45c-.14,11.37-.27,23.12-.41,27.35-.12,3.94-.25,8.4,1.56,12.05,1.61,3.26,4.66,5.61,7.43,7.48,3.24,2.18,6.73,4.17,10.66,6.09,6.56,3.22,13.58,5.86,20.37,8.41,5.19,1.95,10.56,3.97,15.72,6.25,6.9,3.03,15.5,7.48,20.86,15.04,6.79,9.59,7.32,34.34,7.23,44.53,0,.48-.38,.87-.85,.87Z"/><path class="cls-1" d="M.86,251.62c-.47,0-.85-.39-.85-.87-.09-10.2,.43-34.96,7.23-44.55,5.36-7.55,13.96-12,20.86-15.04,5.15-2.27,10.5-4.28,15.68-6.23,10.59-3.99,21.54-8.11,31.06-14.52,2.77-1.87,5.82-4.22,7.44-7.48,1.8-3.65,1.67-8.11,1.55-12.05-.07-2.2-.14-4.4-.21-6.6l-.33-10.45c-.03-.82-.05-2.62-.08-4.67l-.03-2.54c0-.48,.37-.88,.84-.89h.01c.46,0,.84,.38,.85,.86l.03,2.55c.03,2.03,.05,3.82,.08,4.63l.33,10.46c.07,2.2,.14,4.4,.21,6.6,.13,4.15,.27,8.86-1.73,12.91-1.8,3.63-5.07,6.16-8.02,8.15-9.69,6.52-20.73,10.68-31.41,14.7-5.16,1.94-10.49,3.95-15.6,6.2-6.7,2.95-15.04,7.25-20.15,14.46-6.68,9.42-6.97,35.67-6.9,43.5,0,.48-.37,.88-.84,.89h0Z"/><path class="cls-1" d="M98.37,130.21c-5.04,0-9.89-.91-14.42-2.71-.07-.02-.17-.06-.3-.11-.69-.28-1.41-.59-2.14-.94-.64-.3-1.27-.63-1.91-.98-12.56-6.91-20.08-20.31-21.17-37.74-.11-1.29-.18-2.51-.23-3.73-.02-.2-.02-.43-.03-.65v-.32c-.67-23.93,2.48-49.19,30.86-55.24,9.54-2.03,19.6-.71,28.34,3.72,22.95,11.64,24.33,34.42,22.65,55.18l-.85-.07,.85,.07-.85-.07,.84,.12-.08,1.03c-.04,1.31-.14,2.65-.32,4.17-.37,3.68-1.22,7.33-2.54,10.84-1.79,4.82-4.38,9.22-7.69,13.06-5.3,6.18-12.17,10.61-19.87,12.82-3.61,1.04-7.36,1.56-11.16,1.56Zm-.46-101.59c-2.86,0-5.71,.3-8.52,.9-27.15,5.79-30.15,30.27-29.51,53.46v.33c.02,.19,.02,.39,.04,.6,.05,1.23,.12,2.43,.23,3.71,1.05,16.82,8.25,29.71,20.27,36.32,.61,.33,1.21,.64,1.82,.93,.7,.33,1.38,.63,2.07,.91,.1,.04,.17,.07,.23,.09,4.37,1.73,9.02,2.61,13.85,2.61,3.64,0,7.24-.5,10.7-1.5,7.39-2.12,13.97-6.37,19.05-12.29,3.17-3.68,5.65-7.9,7.38-12.52,1.26-3.37,2.08-6.86,2.43-10.4,.17-1.48,.27-2.77,.31-4.07l.09-1.12c1.63-20.16,.33-42.28-21.7-53.46-5.83-2.95-12.26-4.47-18.72-4.47Z"/><path class="cls-1" d="M131.14,113.71c-6.91,11.23-15.48,20.25-28,24.65-4.42,1.56-9.19,2.55-13.77,1.57-2.04-.43-3.75-1.16-5.11-2.1-.04-1.35-.09-2.69-.13-4.05-.04-1.15-.07-4.21-.11-7.2,.09,.03,.17,.06,.24,.09,4.45,1.77,9.19,2.65,14.11,2.65h.03c3.77,0,7.42-.53,10.9-1.53,7.61-2.18,14.34-6.58,19.46-12.55,.83-.46,1.61-.97,2.37-1.53Z"/>
</g>
</svg>